<svg width="30" height="30" viewBox="0 0 30 30" fill="none" xmlns="http://www.w3.org/2000/svg">
<path d="M23.2743 20.1231C23.278 21.6514 22.9537 23.1625 22.3235 24.5537C21.6932 25.9449 20.7718 27.1836 19.6218 28.1854C18.868 28.8502 19.3843 30.0946 20.388 29.9943C21.0591 29.9285 21.723 29.8025 22.3718 29.6179C24.1135 29.125 25.697 28.1845 26.9656 26.8893C28.2342 25.5942 29.1442 23.9892 29.6054 22.2331C30.0442 20.6385 30.1096 18.9638 29.7967 17.3396C29.4838 15.7154 28.801 14.1859 27.8017 12.8703C26.8023 11.5548 25.5134 10.4889 24.0357 9.75596C22.558 9.023 20.9314 8.64279 19.283 8.64503C18.8465 8.6447 18.4104 8.66983 17.9768 8.72029C16.9843 8.84574 16.7331 10.1767 17.6143 10.6546C20.9905 12.4761 23.2767 16.0299 23.2767 20.1231H23.2743ZM9.88064 23.2755C8.35456 23.2803 6.8452 22.9566 5.45438 22.3263C4.06356 21.6959 2.82363 20.7735 1.81822 19.6213C1.15323 18.8687 -0.0905099 19.383 0.0107391 20.3866C0.0760217 21.058 0.201529 21.7222 0.385735 22.3711C1.37823 25.9123 4.2157 28.6759 7.76941 29.6042C14.9281 31.4758 21.3568 26.1256 21.3568 19.2814C21.3568 18.8423 21.3318 18.4033 21.2818 17.9768C21.1568 16.9833 19.8255 16.7324 19.348 17.613C18.4264 19.3267 17.0597 20.7581 15.3928 21.755C13.7259 22.752 11.8211 23.2774 9.88064 23.2755ZM6.72567 9.87689C6.72221 8.34845 7.04688 6.83721 7.67758 5.44599C8.30828 4.05477 9.23021 2.81622 10.3806 1.81462C11.1344 1.14852 10.6181 -0.0946285 9.61439 0.00572641C8.93978 0.0720501 8.27172 0.193719 7.61691 0.369513C5.8767 0.864968 4.29492 1.80637 3.02707 3.10116C1.75922 4.39596 0.848945 5.99958 0.385735 7.75438C-0.0529958 9.34894 -0.118469 11.0237 0.194428 12.6479C0.507326 14.272 1.19012 15.8016 2.18949 17.1171C3.18886 18.4327 4.47774 19.4985 5.95547 20.2315C7.4332 20.9645 9.05976 21.3447 10.7081 21.3424C11.1481 21.3424 11.5881 21.3173 12.0144 21.2672C13.0069 21.1417 13.2581 19.8095 12.3769 19.3328C10.6697 18.4186 9.24213 17.0559 8.24695 15.3903C7.25177 13.7247 6.72512 11.819 6.72567 9.87689ZM20.1255 6.72449C21.6516 6.71968 23.161 7.04337 24.5518 7.67374C25.9426 8.30411 27.1825 9.22649 28.188 10.3787C28.8504 11.1313 30.0954 10.617 29.9942 9.61345C29.929 8.94156 29.8035 8.27694 29.6192 7.62768C28.6254 4.08641 25.788 1.32414 22.233 0.394602C15.0868 -1.48956 8.65815 3.86061 8.65815 10.7048C8.65815 11.1439 8.68315 11.5829 8.73315 12.0107C8.85815 13.0029 10.1931 13.2538 10.6694 12.3745C11.5899 10.6639 12.9549 9.2354 14.6194 8.24082C16.2839 7.24624 18.1858 6.72268 20.123 6.72574L20.1255 6.72449Z" fill="#0095B4"/>
</svg>
