<svg width="36" height="30" viewBox="0 0 36 30" fill="none" xmlns="http://www.w3.org/2000/svg">
<path d="M18 15L4.572 9.4125L5.4 30H1.8L2.664 8.60625L0 7.5L18 0L36 7.5L18 15ZM18 5.625C17.01 5.625 16.2 6.0375 16.2 6.5625C16.2 7.0875 17.01 7.5 18 7.5C18.99 7.5 19.8 7.0875 19.8 6.5625C19.8 6.0375 18.99 5.625 18 5.625ZM18 16.875L28.026 12.6938C29.304 14.4563 30.186 16.575 30.474 18.8812C29.934 18.8062 29.376 18.75 28.8 18.75C24.21 18.75 20.196 21.3188 18 25.1437C16.8853 23.1952 15.304 21.5815 13.4109 20.4607C11.5177 19.3399 9.37756 18.7504 7.2 18.75C6.624 18.75 6.066 18.8062 5.526 18.8812C5.814 16.575 6.696 14.4563 7.974 12.6938L18 16.875Z" fill="#0095B4"/>
</svg>
