<svg width="30" height="30" viewBox="0 0 30 30" fill="none" xmlns="http://www.w3.org/2000/svg">
<path d="M28.8 0H1.2C0.53625 0 0 0.53625 0 1.2V28.8C0 29.4638 0.53625 30 1.2 30H28.8C29.4638 30 30 29.4638 30 28.8V1.2C30 0.53625 29.4638 0 28.8 0ZM9.6 23.7C9.6 23.865 9.465 24 9.3 24H6.3C6.135 24 6 23.865 6 23.7V6.3C6 6.135 6.135 6 6.3 6H9.3C9.465 6 9.6 6.135 9.6 6.3V23.7ZM16.8 13.2C16.8 13.365 16.665 13.5 16.5 13.5H13.5C13.335 13.5 13.2 13.365 13.2 13.2V6.3C13.2 6.135 13.335 6 13.5 6H16.5C16.665 6 16.8 6.135 16.8 6.3V13.2ZM24 15.9C24 16.065 23.865 16.2 23.7 16.2H20.7C20.535 16.2 20.4 16.065 20.4 15.9V6.3C20.4 6.135 20.535 6 20.7 6H23.7C23.865 6 24 6.135 24 6.3V15.9Z" fill="#0095B4"/>
</svg>
